<?xml version="1.0" encoding="UTF-8" standalone="no"?>
<!DOCTYPE svg PUBLIC "-//W3C//DTD SVG 1.1//EN" "http://www.w3.org/Graphics/SVG/1.1/DTD/svg11.dtd">
<svg xmlns="http://www.w3.org/2000/svg" version="1.1" viewBox="0.00 0.00 233.00 227.00">
<g stroke-width="2.00" fill="none" stroke-linecap="butt">
<path stroke="#767777" vector-effect="non-scaling-stroke" d="
  M 172.56 65.19
  Q 164.83 63.31 165.44 55.28
  C 165.77 51.03 174.47 44.17 177.53 41.11
  A 0.63 0.63 0.0 0 0 177.48 40.17
  C 111.84 -12.23 16.00 35.28 20.42 119.88
  C 22.64 162.28 55.98 203.31 98.81 209.17
  C 131.83 213.68 162.69 205.29 185.70 180.45
  C 217.98 145.60 220.49 90.85 190.69 53.33
  Q 189.95 52.40 189.19 53.32
  C 185.67 57.60 178.60 66.65 172.56 65.19"
/>
<path stroke="#7e7f7f" vector-effect="non-scaling-stroke" d="
  M 141.43 63.45
  Q 132.24 55.37 123.25 47.04
  C 118.89 43.00 113.95 41.00 109.21 45.21
  Q 88.28 63.81 44.20 105.71
  C 41.57 108.21 38.07 111.32 41.77 115.00
  C 44.25 117.47 46.84 117.06 49.27 114.77
  Q 82.09 83.83 114.75 53.32
  A 1.00 1.00 0.0 0 1 116.09 53.29
  Q 150.70 82.97 183.87 114.41
  C 187.69 118.03 192.65 116.19 192.71 111.04
  C 192.76 107.50 187.17 103.60 184.57 101.51
  A 1.08 1.04 -70.9 0 1 184.18 100.66
  Q 184.40 92.61 184.47 84.57
  C 184.55 74.31 168.35 74.21 169.15 86.15
  A 0.57 0.57 0.0 0 1 168.20 86.60
  Q 162.45 81.26 157.62 76.71
  C 156.54 75.69 156.35 74.65 156.49 73.25
  C 157.10 67.15 158.76 54.78 149.26 54.79
  C 143.07 54.80 142.73 58.29 141.97 63.25
  Q 141.88 63.84 141.43 63.45"
/>
<path stroke="#7e7f7f" vector-effect="non-scaling-stroke" d="
  M 165.06 117.19
  Q 141.99 95.40 116.98 71.74
  A 0.89 0.89 0.0 0 0 115.76 71.74
  Q 91.56 94.56 67.02 117.51
  C 62.81 121.45 61.91 124.17 62.53 129.73
  Q 65.35 154.84 83.99 168.52
  C 106.27 184.89 139.93 181.54 157.56 160.05
  Q 170.38 144.42 169.33 123.84
  C 169.15 120.11 167.53 119.52 165.06 117.19"
/>
</g>
<path fill="#eceeed" d="
  M 0.00 0.00
  L 233.00 0.00
  L 233.00 227.00
  L 0.00 227.00
  L 0.00 0.00
  Z
  M 172.56 65.19
  Q 164.83 63.31 165.44 55.28
  C 165.77 51.03 174.47 44.17 177.53 41.11
  A 0.63 0.63 0.0 0 0 177.48 40.17
  C 111.84 -12.23 16.00 35.28 20.42 119.88
  C 22.64 162.28 55.98 203.31 98.81 209.17
  C 131.83 213.68 162.69 205.29 185.70 180.45
  C 217.98 145.60 220.49 90.85 190.69 53.33
  Q 189.95 52.40 189.19 53.32
  C 185.67 57.60 178.60 66.65 172.56 65.19
  Z"
/>
<path fill="#000000" d="
  M 172.56 65.19
  C 178.60 66.65 185.67 57.60 189.19 53.32
  Q 189.95 52.40 190.69 53.33
  C 220.49 90.85 217.98 145.60 185.70 180.45
  C 162.69 205.29 131.83 213.68 98.81 209.17
  C 55.98 203.31 22.64 162.28 20.42 119.88
  C 16.00 35.28 111.84 -12.23 177.48 40.17
  A 0.63 0.63 0.0 0 1 177.53 41.11
  C 174.47 44.17 165.77 51.03 165.44 55.28
  Q 164.83 63.31 172.56 65.19
  Z
  M 141.43 63.45
  Q 132.24 55.37 123.25 47.04
  C 118.89 43.00 113.95 41.00 109.21 45.21
  Q 88.28 63.81 44.20 105.71
  C 41.57 108.21 38.07 111.32 41.77 115.00
  C 44.25 117.47 46.84 117.06 49.27 114.77
  Q 82.09 83.83 114.75 53.32
  A 1.00 1.00 0.0 0 1 116.09 53.29
  Q 150.70 82.97 183.87 114.41
  C 187.69 118.03 192.65 116.19 192.71 111.04
  C 192.76 107.50 187.17 103.60 184.57 101.51
  A 1.08 1.04 -70.9 0 1 184.18 100.66
  Q 184.40 92.61 184.47 84.57
  C 184.55 74.31 168.35 74.21 169.15 86.15
  A 0.57 0.57 0.0 0 1 168.20 86.60
  Q 162.45 81.26 157.62 76.71
  C 156.54 75.69 156.35 74.65 156.49 73.25
  C 157.10 67.15 158.76 54.78 149.26 54.79
  C 143.07 54.80 142.73 58.29 141.97 63.25
  Q 141.88 63.84 141.43 63.45
  Z
  M 165.06 117.19
  Q 141.99 95.40 116.98 71.74
  A 0.89 0.89 0.0 0 0 115.76 71.74
  Q 91.56 94.56 67.02 117.51
  C 62.81 121.45 61.91 124.17 62.53 129.73
  Q 65.35 154.84 83.99 168.52
  C 106.27 184.89 139.93 181.54 157.56 160.05
  Q 170.38 144.42 169.33 123.84
  C 169.15 120.11 167.53 119.52 165.06 117.19
  Z"
/>
<path fill="#fcfdfd" d="
  M 141.97 63.25
  C 142.73 58.29 143.07 54.80 149.26 54.79
  C 158.76 54.78 157.10 67.15 156.49 73.25
  C 156.35 74.65 156.54 75.69 157.62 76.71
  Q 162.45 81.26 168.20 86.60
  A 0.57 0.57 0.0 0 0 169.15 86.15
  C 168.35 74.21 184.55 74.31 184.47 84.57
  Q 184.40 92.61 184.18 100.66
  A 1.08 1.04 -70.9 0 0 184.57 101.51
  C 187.17 103.60 192.76 107.50 192.71 111.04
  C 192.65 116.19 187.69 118.03 183.87 114.41
  Q 150.70 82.97 116.09 53.29
  A 1.00 1.00 0.0 0 0 114.75 53.32
  Q 82.09 83.83 49.27 114.77
  C 46.84 117.06 44.25 117.47 41.77 115.00
  C 38.07 111.32 41.57 108.21 44.20 105.71
  Q 88.28 63.81 109.21 45.21
  C 113.95 41.00 118.89 43.00 123.25 47.04
  Q 132.24 55.37 141.43 63.45
  Q 141.88 63.84 141.97 63.25
  Z"
/>
<path fill="#fcfdfd" d="
  M 165.06 117.19
  C 167.53 119.52 169.15 120.11 169.33 123.84
  Q 170.38 144.42 157.56 160.05
  C 139.93 181.54 106.27 184.89 83.99 168.52
  Q 65.35 154.84 62.53 129.73
  C 61.91 124.17 62.81 121.45 67.02 117.51
  Q 91.56 94.56 115.76 71.74
  A 0.89 0.89 0.0 0 1 116.98 71.74
  Q 141.99 95.40 165.06 117.19
  Z"
/>
</svg>
